<?xml version="1.0" encoding="utf-8"?>
<!-- Generator: Adobe Illustrator 16.0.0, SVG Export Plug-In . SVG Version: 6.00 Build 0)  -->
<!DOCTYPE svg PUBLIC "-//W3C//DTD SVG 1.1//EN" "http://www.w3.org/Graphics/SVG/1.1/DTD/svg11.dtd">
<svg version="1.1" id="Layer_1" xmlns="http://www.w3.org/2000/svg" xmlns:xlink="http://www.w3.org/1999/xlink" x="0px" y="0px"
	 width="385px" height="405px" viewBox="0 0 385 405" enable-background="new 0 0 385 405" xml:space="preserve">
<circle fill="#FAC5C5" cx="191.17" cy="212.879" r="154.736"/>
<path fill="#AFBEB1" d="M187.856,72.559c0,0-39.271-63.168-50.998-18C127.286,91.428,187.856,72.559,187.856,72.559z"/>
<path fill="#AFBEB1" d="M196.833,72.559c0,0,39.271-63.168,50.998-18C257.403,91.428,196.833,72.559,196.833,72.559z"/>
<g>
	<path fill="#FFFFFF" d="M181.141,339.733c0.444-3.037,0.751-246.111,0.353-253.211c-0.029-0.466-0.213-0.926-0.305-1.303
		c-0.396-0.115-0.637-0.257-0.859-0.236c-5.82,0.542-11.603,1.295-17.333,2.517c-14.149,3.023-27.374,8.284-39.67,15.828
		c-11.311,6.94-21.449,15.274-30.116,25.355c-9.229,10.734-16.668,22.513-22.001,35.628c-3.612,8.882-6.315,18.011-7.793,27.456
		c-0.859,5.489-1.321,11.06-1.619,16.616c-0.269,5.062-0.025,10.133,0.442,15.211c0.547,5.938,1.384,11.812,2.731,17.599
		c3.975,17.115,11.181,32.797,21.639,46.975c4.136,5.599,8.646,10.906,13.659,15.743c3.123,3.018,6.467,5.819,9.839,8.569
		c9.514,7.755,20.091,13.753,31.425,18.456c10.863,4.52,22.205,7.238,33.853,8.761C177.205,339.936,179.081,339.733,181.141,339.733
		z"/>
	<path fill-rule="evenodd" clip-rule="evenodd" fill="#FFFFFF" d="M318.318,227.502c-0.228,0.545-0.652,1.09-0.66,1.642
		c-0.088,6.397-1.884,12.472-3.565,18.552c-4.336,15.602-11.598,29.783-21.494,42.591c-11.557,14.956-25.703,26.88-42.569,35.603
		c-9.664,5.005-19.744,8.846-30.363,11.25c-6.067,1.387-12.171,2.551-18.417,2.818c-1.609,0.07-3.212,0.37-4.823,0.502
		c-0.591,0.043-1.199-0.107-1.993-0.188c-0.103-0.812-0.269-1.521-0.273-2.227c-0.023-4.095-0.018-8.192-0.018-12.279
		c0-78.741,0-157.488,0.009-236.232c0-1.463,0.056-2.928,0.086-4.515c2.042-0.633,3.916-0.407,5.718-0.194
		c4.809,0.573,9.629,1.184,14.399,2.026c15.251,2.691,29.438,8.224,42.676,16.198c9.75,5.878,18.61,12.876,26.449,21.12
		c10.364,10.897,18.685,23.147,24.752,36.928c4.218,9.59,7.156,19.531,9.033,29.803c0.266,1.452,0.226,2.958,0.341,4.438
		c0.068,0.846-0.099,1.764,0.714,2.396C318.318,207.657,318.318,217.577,318.318,227.502z M213.868,98.883
		c-0.222,0.753-0.407,1.098-0.413,1.449c-0.114,7.424,0.198,14.859-0.55,22.269c0,33.237-0.106,66.471,0.03,99.705
		c0.144,33.216-0.63,66.436,0.495,99.654c0.043,1.207-0.296,2.484,0.475,3.59c2.852,0.145,6.558-0.695,13.716-3.103
		c15.57-5.235,29.396-13.431,41.529-24.417c9.38-8.5,17.092-18.331,23.263-29.366c8.611-15.425,13.51-31.995,14.395-49.544
		c1.428-28.249-6.252-53.96-23.508-76.554C265.727,119.557,242.521,105.184,213.868,98.883z"/>
	<path fill-rule="evenodd" clip-rule="evenodd" fill="#FFFFFF" d="M181.141,339.733c-2.06,0-3.936,0.203-5.755-0.036
		c-11.647-1.522-22.99-4.241-33.853-8.761c-11.334-4.703-21.911-10.701-31.425-18.456c-3.372-2.75-6.717-5.552-9.839-8.569
		c-5.014-4.837-9.523-10.145-13.659-15.743c-10.458-14.178-17.664-29.859-21.639-46.975c-1.347-5.787-2.184-11.661-2.731-17.599
		c-0.468-5.078-0.711-10.148-0.442-15.211c0.298-5.557,0.759-11.127,1.619-16.616c1.478-9.444,4.181-18.573,7.793-27.456
		c5.333-13.115,12.773-24.895,22.001-35.628c8.667-10.081,18.806-18.415,30.116-25.355c12.297-7.544,25.521-12.805,39.67-15.828
		c5.73-1.222,11.513-1.975,17.333-2.517c0.223-0.021,0.463,0.121,0.859,0.236c0.092,0.377,0.276,0.837,0.305,1.303
		C181.892,93.622,181.585,336.696,181.141,339.733z M162.3,100.432c-5.682,0.109-20.556,5.876-31.674,12.498
		c-16.893,10.064-30.41,23.561-40.514,40.367c-10.238,17.039-15.78,35.591-16.284,55.375c-0.815,32.075,9.901,60.049,31.861,83.589
		c16.402,17.597,40.244,29.817,56.69,32.45c0.587-2.82,0.608-18.002,0.024-21.029c-0.214-0.125-0.417-0.275-0.648-0.37
		c-0.931-0.346-1.865-0.683-2.801-1.02c-17.445-6.196-32.087-16.371-43.543-30.854c-13.816-17.468-20.441-37.48-20.662-59.637
		c-0.022-2.221,0.274-4.444,0.494-6.662c0.313-3.074,0.521-6.173,1.072-9.21c1.968-10.812,5.589-21.05,11.144-30.576
		c6.647-11.406,15.216-21.114,25.85-29.007c8.255-6.128,17.274-10.792,27.03-14.064c0.794-0.267,1.551-0.651,2.214-0.933
		C163.103,115.911,162.93,102.9,162.3,100.432z"/>
	<path fill-rule="evenodd" clip-rule="evenodd" fill="#FAC5C5" d="M213.868,98.883c28.653,6.3,51.858,20.674,69.432,43.682
		c17.256,22.594,24.936,48.305,23.508,76.554c-0.885,17.549-5.783,34.119-14.395,49.544c-6.171,11.035-13.883,20.866-23.263,29.366
		c-12.134,10.986-25.959,19.182-41.529,24.417c-7.158,2.407-10.864,3.247-13.716,3.103c-0.771-1.105-0.432-2.383-0.475-3.59
		c-1.125-33.219-0.352-66.438-0.495-99.654c-0.137-33.233-0.03-66.467-0.03-99.705c0.748-7.409,0.436-14.844,0.55-22.269
		C213.461,99.981,213.646,99.636,213.868,98.883z M234.029,296.784c1.16-0.484,1.851-0.705,2.479-1.041
		c6.824-3.683,13.07-8.186,18.747-13.432c9.891-9.145,17.547-19.881,22.914-32.227c5.013-11.518,7.48-23.566,7.846-36.062
		c0.155-5.455-0.463-10.867-1.275-16.262c-1.965-13.059-6.619-25.101-13.705-36.227c-5.925-9.3-13.359-17.254-22.039-24.068
		c-3.917-3.075-8.097-5.77-12.457-8.189c-0.718-0.399-1.466-1.058-2.509-0.23C234.029,184.693,234.029,240.45,234.029,296.784z"/>
	<path fill-rule="evenodd" clip-rule="evenodd" fill="#FAC5C5" d="M162.3,100.432c0.63,2.469,0.803,15.479,0.253,20.916
		c-0.663,0.282-1.42,0.666-2.214,0.933c-9.756,3.272-18.775,7.936-27.03,14.064c-10.634,7.893-19.203,17.601-25.85,29.007
		c-5.555,9.525-9.176,19.764-11.144,30.576c-0.551,3.037-0.759,6.136-1.072,9.21c-0.219,2.218-0.516,4.441-0.494,6.662
		c0.22,22.156,6.846,42.169,20.662,59.637c11.457,14.483,26.099,24.658,43.543,30.854c0.937,0.337,1.871,0.674,2.801,1.02
		c0.23,0.095,0.434,0.245,0.648,0.37c0.584,3.027,0.563,18.209-0.024,21.029c-16.447-2.633-40.289-14.854-56.69-32.45
		c-21.96-23.54-32.677-51.514-31.861-83.589c0.504-19.783,6.046-38.336,16.284-55.375c10.104-16.806,23.621-30.302,40.514-40.367
		C141.744,106.308,156.618,100.541,162.3,100.432z"/>
	<path fill-rule="evenodd" clip-rule="evenodd" fill="#FFFFFF" d="M234.029,296.784c0-56.334,0-112.091,0-167.738
		c1.043-0.828,1.791-0.169,2.509,0.23c4.36,2.419,8.54,5.115,12.457,8.189c8.68,6.813,16.114,14.768,22.039,24.068
		c7.086,11.126,11.74,23.168,13.705,36.227c0.812,5.395,1.431,10.807,1.275,16.262c-0.365,12.496-2.833,24.545-7.846,36.062
		c-5.367,12.346-13.023,23.082-22.914,32.227c-5.677,5.246-11.923,9.749-18.747,13.432
		C235.88,296.079,235.189,296.299,234.029,296.784z"/>
</g>
</svg>
